<svg width="164" height="52" viewBox="0 0 164 52" fill="none" xmlns="http://www.w3.org/2000/svg">
<path fill-rule="evenodd" clip-rule="evenodd" d="M68.3934 33.2671L68.735 39.9712L63.4008 40.2576L62.9735 33.2671H54.272V28.3106H62.6874L62.5453 26.1046H55.9839V21.2342H62.2602L62.1171 18.7134L67.4523 18.427L67.5944 21.2342H72.6716V26.1046H67.9651L68.0226 28.3106H74.0127V33.2671H68.3934ZM69.677 19.7162V16.22H72.6716V19.7162H69.677ZM73.8132 19.7162V16.22H76.8652V19.7162H73.8132Z" fill="black"/>
<path fill-rule="evenodd" clip-rule="evenodd" d="M95.7787 39.0544V34.1272H97.2055V25.7322H90.7015V29.3135C90.7015 31.7492 90.5019 33.8399 90.0738 35.4732C89.6456 37.1064 88.9322 38.6253 87.9346 40.0572L83.1415 37.6792C84.5683 35.6168 85.2807 32.8371 85.2807 29.3135V25.7322H82.942V20.8618H85.2807V19.1425H90.7015V20.8618H102.54V39.0544L95.7787 39.0544ZM98.3461 19.7162V16.22H101.342V19.7162H98.3461ZM102.54 19.7162V16.22H105.535V19.7162H102.54Z" fill="black"/>
<path fill-rule="evenodd" clip-rule="evenodd" d="M112.239 28.3966V18.9997H117.602V28.3966H112.239ZM127.073 40.4872L122.651 37.679C124.876 34.8426 125.932 31.6054 125.932 27.9675V18.942H131.352V27.9675C131.352 32.6943 129.926 36.8199 127.073 40.4872V40.4872Z" fill="black"/>
<path fill-rule="evenodd" clip-rule="evenodd" d="M160.107 39.1981H149.552C146.699 39.1981 144.474 38.3956 142.906 36.906C141.337 35.4732 140.566 33.4108 140.566 30.7464V18.427H145.901V30.7464C145.901 32.1216 146.271 33.0384 146.899 33.6112C147.413 34.0412 148.325 34.27 149.552 34.27H160.107L160.107 39.1981ZM163.302 19.945C163.302 21.0044 162.96 21.9506 162.162 22.581C161.448 23.2975 160.535 23.6699 159.451 23.6699C159.023 23.6699 158.595 23.5839 158.168 23.4402V25.6746H148.554V20.719H155.742C155.686 20.5177 155.686 20.2313 155.686 19.945C155.686 18.8561 156.027 17.9969 156.741 17.2805C157.54 16.5641 158.395 16.22 159.451 16.22C160.535 16.22 161.448 16.5641 162.162 17.2805C162.96 17.9969 163.302 18.8561 163.302 19.945ZM160.392 19.945C160.392 19.2862 160.107 18.9998 159.451 18.9998C158.824 18.9998 158.538 19.2862 158.538 19.945C158.538 20.5754 158.824 20.8617 159.451 20.8617C160.107 20.8617 160.392 20.5754 160.392 19.945Z" fill="black"/>
<path fill-rule="evenodd" clip-rule="evenodd" d="M10.5279 51.3696L0.968 47.2351L6.02385 36.983L10.3809 39.1099L7.5411 44.7818L7.99462 44.9773C10.452 46.0397 11.5858 48.9016 10.5279 51.3696Z" fill="black"/>
<path fill-rule="evenodd" clip-rule="evenodd" d="M34.7445 49.2427L29.748 39.405L34.1265 37.325L37.0744 42.8142L38.1498 42.3186C40.5799 41.1966 43.4567 42.2668 44.573 44.7084L34.7445 49.2427Z" fill="black"/>
<path fill-rule="evenodd" clip-rule="evenodd" d="M44.8224 20.7926L41.3967 17.3531C37.6839 21.0819 32.5443 23.071 27.65 22.6741C23.8127 22.3623 20.5845 20.6352 18.5592 17.8105L14.6284 20.6528C17.1792 24.2106 21.0127 26.5251 25.5392 27.2973V28.219C24.8316 28.607 23.8818 28.9873 22.6905 29.3586C21.5003 29.7301 20.0843 29.9158 18.4424 29.9158C16.8327 29.9158 15.3768 29.6421 14.0737 29.0918C12.7696 28.5425 11.6514 27.7752 10.718 26.789C9.78376 25.8028 9.06843 24.6397 8.56917 23.2977C8.06993 21.9567 7.82076 20.4779 7.82076 18.8612C7.82076 17.2778 8.06994 15.8068 8.56917 14.4492C9.06844 13.0915 9.78377 11.9196 10.718 10.9334C11.6514 9.94817 12.7696 9.17992 14.0737 8.63061C15.3768 8.08131 16.8327 7.80566 18.4424 7.80566C20.3733 7.80566 21.983 8.08131 23.2705 8.63061C24.5572 9.17991 25.7163 9.98823 26.7459 11.0546L32.0568 5.23605C30.3196 3.62037 28.2992 2.48071 25.9975 1.81802C23.6968 1.15535 21.1781 0.823999 18.4424 0.823999C15.771 0.823999 13.3087 1.24427 11.0557 2.08485C8.80274 2.92543 6.85535 4.12962 5.21451 5.69738C3.57266 7.26516 2.29288 9.16331 1.37613 11.3938C0.45841 13.6242 0 16.1137 0 18.8612C0 21.6087 0.4584 24.0972 1.37613 26.3277C2.29288 28.5582 3.57266 30.4573 5.21451 32.025C6.85535 33.5938 8.80274 34.797 11.0557 35.6376C13.3087 36.4772 15.771 36.8985 18.4424 36.8985C20.9534 36.8985 23.4156 36.6384 25.8292 36.1224C28.2427 35.6053 30.56 34.7647 32.7808 33.6007V27.2113C37.2226 26.3717 41.4902 24.1393 44.8225 20.7926L44.8224 20.7926Z" fill="#FFAF00"/>
<path fill-rule="evenodd" clip-rule="evenodd" d="M23.95 18.2783C25.2145 18.2783 26.2396 17.0723 26.2396 15.5846C26.2396 14.0969 25.2145 12.8909 23.95 12.8909C22.6855 12.8909 21.6604 14.0969 21.6604 15.5846C21.6604 17.0723 22.6855 18.2783 23.95 18.2783Z" fill="black"/>
<path fill-rule="evenodd" clip-rule="evenodd" d="M35.0355 18.2783C36.3 18.2783 37.3251 17.0723 37.3251 15.5846C37.3251 14.0969 36.3 12.8909 35.0355 12.8909C33.7709 12.8909 32.7458 14.0969 32.7458 15.5846C32.7458 17.0723 33.7709 18.2783 35.0355 18.2783Z" fill="black"/>
</svg>
